<svg fill="none" height="24" viewBox="0 0 24 24" width="24" xmlns="http://www.w3.org/2000/svg"><path d="m8.74757 4.28155c1.52103-1.52103 3.34953-2.28155 5.48543-2.28155s3.9644.76052 5.4854 2.28155c1.5211 1.52104 2.2816 3.34952 2.2816 5.48544 0 2.13591-.7605 3.96441-2.2816 5.48541-1.521 1.5211-3.3495 2.2816-5.4854 2.2816-1.8447 0-3.479-.5825-4.9029-1.7476l-6.16505 6.2136-1.16505-1.165 6.21359-6.1651c-1.16505-1.4239-1.74757-3.0582-1.74757-4.90291 0-2.13592.76052-3.9644 2.28155-5.48544zm9.85433 1.11651c-1.1974-1.22978-2.6537-1.84466-4.3689-1.84466s-3.1877.61488-4.41747 1.84466c-1.19741 1.19741-1.79611 2.65372-1.79611 4.36893s.5987 3.18771 1.79611 4.41751c1.22977 1.1974 2.70227 1.7961 4.41747 1.7961s3.1715-.5987 4.3689-1.7961c1.2298-1.2298 1.8447-2.7023 1.8447-4.41751s-.6149-3.17152-1.8447-4.36893z" fill="#80485b"/></svg>