<svg width="64" height="64" viewBox="0 0 64 64" fill="none" xmlns="http://www.w3.org/2000/svg">
<path fill-rule="evenodd" clip-rule="evenodd" d="M32 64C49.6731 64 64 49.6731 64 32C64 14.3269 49.6731 0 32 0C14.3269 0 0 14.3269 0 32C0 49.6731 14.3269 64 32 64Z" fill="#FFFAF3"/>
<path d="M28.4996 28.7609H33.1871H35.5309H37.8746H40.2184V31.1522H37.8746H35.5309H33.1871H28.4996V28.7609Z" fill="#80485B"/>
<path d="M23.8121 33.5435H28.4996H30.8434H33.1871H35.5309H37.8746H40.2184V35.9348H37.8746H35.5309H33.1871H30.8434H28.4996H23.8121V33.5435Z" fill="#80485B"/>
<path d="M23.8121 38.3261H28.4996H30.8434H33.1871H35.5309V40.7174H33.1871H30.8434H28.4996H23.8121V38.3261Z" fill="#80485B"/>
<rect x="19.875" y="20.4688" width="24.2812" height="24.2812" stroke="#F69516" stroke-width="1.5"/>
<rect x="19" y="19.25" width="26" height="7" fill="#80485B"/>
<rect x="24.2812" y="18" width="1.71875" height="5.15625" fill="#F69516"/>
<rect x="38.0312" y="18" width="1.71875" height="5.15625" fill="#F69516"/>
</svg>
