<svg fill="none" height="64" viewBox="0 0 64 64" width="64" xmlns="http://www.w3.org/2000/svg"><path clip-rule="evenodd" d="m32 64c17.6731 0 32-14.3269 32-32s-14.3269-32-32-32-32 14.3269-32 32 14.3269 32 32 32z" fill="#fffaf3" fill-rule="evenodd"/><path d="m18.2778 22.6334h28.3333v23.2778c0 .8284-.6716 1.5-1.5 1.5h-25.3333c-.8285 0-1.5-.6716-1.5-1.5z" stroke="#ffa001"/><path d="m16 21.794c0 1.1046.8954 2 2 2h28.7998c1.1046 0 2-.8954 2-2v-2.9052c0-1.1046-.8954-2-2-2h-28.7998c-1.1046 0-2 .8954-2 2z" fill="#80485b"/><path d="m25.4946 19.4784c0 .4767.3865.8632.8632.8632h12.0841c.4767 0 .8632-.3865.8632-.8632s-.3865-.8632-.8632-.8632h-12.0841c-.4767 0-.8632.3865-.8632.8632z" fill="#fffaf3"/><circle cx="32.6315" cy="35.2094" r="8.13153" stroke="#ffa001"/><path d="m32.8212 30.1334c-.4148 0-.7619.3122-.8635.6918-.0677.0337-.1778.0675-.2455.0675-.3133.1349-.5926.3121-.8297.5567-.2116.2362-.3809.4809-.491.793-.1015.2784-.1693.5905-.1693.8604 0 .4134.0678.7593.2117 1.0714.1354.3796.3132.6242.5587.8267.2116.1687.4487.3458.728.4471.2455.1012.4487.1687.6942.2446.2117.0675.4148.1012.6265.1687.1354.0338.2793.1013.3809.1687.0678.0338.1355.1013.2117.2109.0338.0338.0677.135.0677.3459 0 .135-.0339.2446-.0677.3459-.0339.1012-.0678.1771-.1355.2446-.0338.0675-.1016.1012-.2116.135-.1693.0675-.5588.0675-.7958 0-.1016-.0338-.1778-.0675-.2455-.135s-.1354-.1771-.2116-.3121c-.1693-.4134-.7281-.6243-1.1429-.4471-.4571.2109-.6349.7002-.4571 1.1473.1354.3458.3809.6579.6264.9026.2455.2446.5588.4133.8635.5146.0677.4133.4148.7254.8635.7254.4148 0 .7619-.2783.8296-.6917l.3133-.1012c.3471-.135.6264-.3459.8296-.5905.2032-.2447.3809-.5146.4825-.8605.1016-.2784.1355-.5905.1355-.9026 0-.4808-.1016-.9026-.3132-1.2485-.1694-.3121-.4149-.5568-.7281-.7592-.2455-.1687-.5164-.2784-.8296-.3796-.2117-.0675-.4487-.135-.6603-.2109-.1693-.0338-.3471-.1012-.5164-.1687-.1016-.0338-.1693-.0675-.2455-.135-.0339-.0338-.0678-.0675-.1016-.135 0 0-.0339-.1012-.0339-.3458 0-.1013 0-.1688.0339-.2784.0338-.0675.0677-.135.1354-.2109.0678-.0675.1355-.1013.2455-.135.2117-.1012.6265-.1012.8297 0 .1015.0337.1693.1012.2116.135.0677.0675.1016.1687.1354.2446.1016.3459.4487.5905.8297.5905.1016 0 .1693 0 .2793-.0337.2117-.0675.4149-.2109.5164-.4134.1016-.2109.1355-.4471.0678-.658-.1016-.3121-.2455-.5905-.4487-.8604-.2116-.2447-.4825-.4471-.8296-.6243-.0678-.0337-.1694-.0674-.2794-.1012-.0508-.388-.3979-.7002-.855-.7002z" fill="#80485b"/></svg>