<svg width="64" height="64" viewBox="0 0 64 64" fill="none" xmlns="http://www.w3.org/2000/svg">
<path fill-rule="evenodd" clip-rule="evenodd" d="M32 64C49.6731 64 64 49.6731 64 32C64 14.3269 49.6731 0 32 0C14.3269 0 0 14.3269 0 32C0 49.6731 14.3269 64 32 64Z" fill="#FFFAF3"/>
<path d="M34.8421 37.2V33.2H28.9474V38H26V31.6C26 30.72 26.6632 30 27.4737 30H34.8421V26L40 31.6L34.8421 37.2Z" fill="#80485B"/>
<mask id="path-4-inside-1" fill="white">
<rect x="32.325" y="16" width="23.087" height="23.087" rx="1" transform="rotate(45 32.325 16)"/>
</mask>
<rect x="32.325" y="16" width="23.087" height="23.087" rx="1" transform="rotate(45 32.325 16)" stroke="#FFA001" stroke-width="3" mask="url(#path-4-inside-1)"/>
</svg>
