<svg width="64" height="64" viewBox="0 0 64 64" fill="none" xmlns="http://www.w3.org/2000/svg">
<path fill-rule="evenodd" clip-rule="evenodd" d="M32 64C49.6731 64 64 49.6731 64 32C64 14.3269 49.6731 0 32 0C14.3269 0 0 14.3269 0 32C0 49.6731 14.3269 64 32 64Z" fill="#FFFAF3"/>
<path d="M38.141 35.1942L38.141 35.1942L38.1345 35.1921C37.4205 34.9645 36.5977 35.1283 36.023 35.703L36.0224 35.7036L33.4796 38.2522C30.2197 36.4784 27.5342 33.7883 25.7547 30.5318L28.297 27.9837C28.2971 27.9835 28.2973 27.9834 28.2974 27.9832C28.2975 27.9832 28.2975 27.9831 28.2976 27.9831C28.8719 27.4083 29.0355 26.5859 28.8079 25.8722L28.8079 25.8722L28.8058 25.8657C28.3371 24.4405 28.0833 22.9129 28.0833 21.3333C28.0833 20.1791 27.1542 19.25 26 19.25H21.3333C20.1791 19.25 19.25 20.1791 19.25 21.3333C19.25 34.2675 29.7325 44.75 42.6667 44.75C43.8209 44.75 44.75 43.8209 44.75 42.6667V38C44.75 36.8458 43.8209 35.9167 42.6667 35.9167C41.0875 35.9167 39.5665 35.663 38.141 35.1942Z" stroke="#FFA001" stroke-width="1.5"/>
<path d="M43 32H42.3333C41.781 32 41.339 31.5508 41.2805 31.0016C40.8169 26.6455 37.3545 23.1831 32.9984 22.7195C32.4492 22.661 32 22.219 32 21.6667V21C32 20.4477 32.4493 19.9957 32.9997 20.0411C38.8291 20.522 43.478 25.1709 43.9589 31.0003C44.0043 31.5507 43.5523 32 43 32Z" fill="#80485B"/>
<path d="M37.6667 32H37C36.4477 32 36.0128 31.5453 35.8762 31.0102C35.5158 29.5978 34.4022 28.4842 32.9898 28.1238C32.4547 27.9872 32 27.5523 32 27V26.3333C32 25.781 32.4503 25.3254 32.9965 25.4074C35.8793 25.8401 38.1599 28.1207 38.5926 31.0035C38.6746 31.5497 38.219 32 37.6667 32Z" fill="#80485B"/>
</svg>
