<svg fill="none" height="64" viewBox="0 0 64 64" width="64" xmlns="http://www.w3.org/2000/svg"><path clip-rule="evenodd" d="m32 64c17.6731 0 32-14.3269 32-32s-14.3269-32-32-32-32 14.3269-32 32 14.3269 32 32 32z" fill="#fffaf3" fill-rule="evenodd"/><path d="m32.9692 32.3227c3.6461 0 6.7846-2.2615 8.0307-5.4461l-2.5384-4.3384-2.5385-2.0769h-6.4615l-4.7539 5.6768c1.0616 3.6 4.3385 6.1846 8.2616 6.1846z" fill="#fff3e2" stroke="#ffa001" stroke-linejoin="round" stroke-miterlimit="10" stroke-width="1.5"/><path d="m20.2769 47.8765h15.7846c.923 0 1.7538-.4153 2.3538-1.1077l5.2616-6.4153c.7846-.9693.6923-2.3539-.2308-3.1847-.9692-.8769-2.4462-.7846-3.2769.2308l-4.9385 5.7231h-7.0154l-2.8154-2.0769 5.2154-1.6154c.8308-.2769 1.3846-1.0154 1.3846-1.8923 0-1.1077-.8769-1.9846-1.9846-1.9846l-9.7384 2.3077z" fill="#fff3e2" stroke="#ffa001" stroke-linejoin="round" stroke-miterlimit="10" stroke-width="1.5"/><path clip-rule="evenodd" d="m15.7142 48.3508h4.6154v-12.9231h-4.6154zm2.2858-1.151c1.1046 0 2-.8954 2-2s-.8954-2-2-2-2 .8954-2 2 .8954 2 2 2z" fill="#80485b" fill-rule="evenodd"/><path d="m20.3296 48.3508v1c.5523 0 1-.4478 1-1zm-4.6154 0h-1c0 .5522.4477 1 1 1zm4.6154-12.9231h1c0-.5523-.4477-1-1-1zm-4.6154 0v-1c-.5523 0-1 .4477-1 1zm4.6154 11.9231h-4.6154v2h4.6154zm-1-11.9231v12.9231h2v-12.9231zm-3.6154 1h4.6154v-2h-4.6154zm1 11.9231v-12.9231h-2v12.9231zm2.2858-3.151c0 .5523-.4477 1-1 1v2c1.6569 0 3-1.3431 3-3zm-1-1c.5523 0 1 .4477 1 1h2c0-1.6568-1.3431-3-3-3zm-1 1c0-.5523.4477-1 1-1v-2c-1.6569 0-3 1.3432-3 3zm1 1c-.5523 0-1-.4477-1-1h-2c0 1.6569 1.3431 3 3 3z" fill="#80485b"/><path d="m44.1846 16.0769h-15.7847c-.923 0-1.7538.4154-2.3538 1.1077l-5.2615 6.4154c-.7847.9692-.6462 2.4.2769 3.1846.9692.8769 2.4461.7846 3.2769-.2308l4.8923-5.6769h7.0154l2.8154 2.0769-5.2154 1.5693c-.8308.2769-1.3846 1.0153-1.3846 1.8923 0 1.1077.8769 1.9846 1.9846 1.9846l9.7385-2.3077z" fill="#fff3e2" stroke="#ffa001" stroke-linejoin="round" stroke-miterlimit="10" stroke-width="1.5"/><g fill="#80485b"><path clip-rule="evenodd" d="m48.1538 14.8566h-4.1538v12.9231h4.1538zm-2.1537 5.1433c1.1045 0 2-.8954 2-2s-.8955-2-2-2c-1.1046 0-2 .8954-2 2s.8954 2 2 2z" fill-rule="evenodd"/><path d="m44 14.8566v-1c-.5523 0-1 .4477-1 1zm4.1538 0h1c0-.5523-.4477-1-1-1zm-4.1538 12.9231h-1c0 .5523.4477 1 1 1zm4.1538 0v1c.5523 0 1-.4477 1-1zm-4.1538-11.9231h4.1538v-2h-4.1538zm1 11.9231v-12.9231h-2v12.9231zm3.1538-1h-4.1538v2h4.1538zm-1-11.9231v12.9231h2v-12.9231zm-.1537 3.1433c0 .5523-.4478 1-1 1v2c1.6568 0 3-1.3431 3-3zm-1-1c.5522 0 1 .4477 1 1h2c0-1.6569-1.3432-3-3-3zm-1 1c0-.5523.4477-1 1-1v-2c-1.6569 0-3 1.3431-3 3zm1 1c-.5523 0-1-.4477-1-1h-2c0 1.6569 1.3431 3 3 3z"/></g></svg>