<svg width="176" height="176" viewBox="0 0 176 176" fill="none" xmlns="http://www.w3.org/2000/svg">
<g filter="url(#filter0_d)">
<path fill-rule="evenodd" clip-rule="evenodd" d="M88 152C123.346 152 152 123.346 152 88C152 52.6538 123.346 24 88 24C52.6538 24 24 52.6538 24 88C24 123.346 52.6538 152 88 152Z" fill="white"/>
</g>
<path d="M89.9094 89.2873C96.4409 89.2873 102.063 85.2361 104.295 79.5314L99.748 71.7599L95.2008 68.0394H83.626L75.1102 78.2086C77.0118 84.6574 82.8819 89.2873 89.9094 89.2873Z" stroke="#FE5366" stroke-width="2" stroke-miterlimit="10"/>
<path d="M67.1732 117.15H95.4488C97.1024 117.15 98.5906 116.406 99.6654 115.165L109.091 103.673C110.496 101.937 110.331 99.4567 108.677 97.9685C106.941 96.3977 104.295 96.563 102.807 98.3819L93.9606 108.634H81.3937L76.3504 104.913L85.6929 102.02C87.1811 101.524 88.1732 100.201 88.1732 98.6299C88.1732 96.6457 86.6024 95.0748 84.6181 95.0748L67.1732 99.2087V117.15V117.15Z" stroke="#FFA001" stroke-width="2" stroke-miterlimit="10" stroke-linejoin="round"/>
<path fill-rule="evenodd" clip-rule="evenodd" d="M59 118H67.2677V94.85H59V118ZM63.3701 114.396C64.6421 114.396 65.6732 113.365 65.6732 112.093C65.6732 110.821 64.6421 109.79 63.3701 109.79C62.0981 109.79 61.0669 110.821 61.0669 112.093C61.0669 113.365 62.0981 114.396 63.3701 114.396Z" fill="#80485B"/>
<path d="M67.2677 118V119C67.82 119 68.2677 118.552 68.2677 118H67.2677ZM59 118H58C58 118.552 58.4477 119 59 119V118ZM67.2677 94.85H68.2677C68.2677 94.2978 67.82 93.85 67.2677 93.85V94.85ZM59 94.85V93.85C58.4477 93.85 58 94.2978 58 94.85H59ZM67.2677 117H59V119H67.2677V117ZM66.2677 94.85V118H68.2677V94.85H66.2677ZM59 95.85H67.2677V93.85H59V95.85ZM60 118V94.85H58V118H60ZM64.6732 112.093C64.6732 112.813 64.0898 113.396 63.3701 113.396V115.396C65.1944 115.396 66.6732 113.917 66.6732 112.093H64.6732ZM63.3701 110.79C64.0898 110.79 64.6732 111.373 64.6732 112.093H66.6732C66.6732 110.269 65.1944 108.79 63.3701 108.79V110.79ZM62.0669 112.093C62.0669 111.373 62.6504 110.79 63.3701 110.79V108.79C61.5458 108.79 60.0669 110.269 60.0669 112.093H62.0669ZM63.3701 113.396C62.6504 113.396 62.0669 112.813 62.0669 112.093H60.0669C60.0669 113.917 61.5458 115.396 63.3701 115.396V113.396Z" fill="#80485B"/>
<path d="M110 60.1857H81.7244C80.0709 60.1857 78.5827 60.9298 77.5079 62.1699L68.0827 73.662C66.6772 75.3983 66.9252 77.9613 68.5787 79.3668C70.315 80.9376 72.9606 80.7723 74.4488 78.9534L83.2126 68.7841H95.7795L100.823 72.5046L91.4803 75.3156C89.9921 75.8117 89 77.1345 89 78.7054C89 80.6896 90.5709 82.2605 92.5551 82.2605L110 78.1266V60.1857Z" fill="#FFFCFD" stroke="#FFA001" stroke-width="2" stroke-miterlimit="10" stroke-linejoin="round"/>
<path fill-rule="evenodd" clip-rule="evenodd" d="M117.11 57.9999H109.669V81.1495H117.11V57.9999ZM113.508 64.6739C114.78 64.6739 115.811 63.6428 115.811 62.3708C115.811 61.0988 114.78 60.0676 113.508 60.0676C112.236 60.0676 111.205 61.0988 111.205 62.3708C111.205 63.6428 112.236 64.6739 113.508 64.6739Z" fill="#80485B"/>
<path d="M109.669 57.9999V56.9999C109.117 56.9999 108.669 57.4476 108.669 57.9999H109.669ZM117.11 57.9999H118.11C118.11 57.4476 117.663 56.9999 117.11 56.9999V57.9999ZM109.669 81.1495H108.669C108.669 81.7018 109.117 82.1495 109.669 82.1495V81.1495ZM117.11 81.1495V82.1495C117.663 82.1495 118.11 81.7018 118.11 81.1495H117.11ZM109.669 58.9999H117.11V56.9999H109.669V58.9999ZM110.669 81.1495V57.9999H108.669V81.1495H110.669ZM117.11 80.1495H109.669V82.1495H117.11V80.1495ZM116.11 57.9999V81.1495H118.11V57.9999H116.11ZM114.811 62.3708C114.811 63.0905 114.228 63.6739 113.508 63.6739V65.6739C115.332 65.6739 116.811 64.195 116.811 62.3708H114.811ZM113.508 61.0676C114.228 61.0676 114.811 61.6511 114.811 62.3708H116.811C116.811 60.5465 115.332 59.0676 113.508 59.0676V61.0676ZM112.205 62.3708C112.205 61.6511 112.788 61.0676 113.508 61.0676V59.0676C111.684 59.0676 110.205 60.5465 110.205 62.3708H112.205ZM113.508 63.6739C112.788 63.6739 112.205 63.0905 112.205 62.3708H110.205C110.205 64.195 111.684 65.6739 113.508 65.6739V63.6739Z" fill="#80485B"/>
<defs>
<filter id="filter0_d" x="0" y="0" width="176" height="176" filterUnits="userSpaceOnUse" color-interpolation-filters="sRGB">
<feFlood flood-opacity="0" result="BackgroundImageFix"/>
<feColorMatrix in="SourceAlpha" type="matrix" values="0 0 0 0 0 0 0 0 0 0 0 0 0 0 0 0 0 0 127 0"/>
<feOffset/>
<feGaussianBlur stdDeviation="12"/>
<feColorMatrix type="matrix" values="0 0 0 0 0.501961 0 0 0 0 0.282353 0 0 0 0 0.356863 0 0 0 0.08 0"/>
<feBlend mode="normal" in2="BackgroundImageFix" result="effect1_dropShadow"/>
<feBlend mode="normal" in="SourceGraphic" in2="effect1_dropShadow" result="shape"/>
</filter>
</defs>
</svg>
