<svg width="61" height="62" viewBox="0 0 61 62" fill="none" xmlns="http://www.w3.org/2000/svg">
<path d="M31.9094 32.2873C38.4409 32.2873 44.063 28.2361 46.2953 22.5314L41.748 14.7599L37.2008 11.0394H25.626L17.1102 21.2086C19.0118 27.6574 24.8819 32.2873 31.9094 32.2873Z" stroke="#FE5366" stroke-width="2" stroke-miterlimit="10"/>
<path d="M9.17323 60.1496H37.4488C39.1024 60.1496 40.5906 59.4055 41.6654 58.1654L51.0906 46.6733C52.4961 44.937 52.3307 42.4567 50.6772 40.9685C48.9409 39.3977 46.2953 39.563 44.8071 41.3819L35.9606 51.6339H23.3937L18.3504 47.9134L27.6929 45.0197C29.1811 44.5236 30.1732 43.2008 30.1732 41.6299C30.1732 39.6457 28.6024 38.0748 26.6181 38.0748L9.17323 42.2087V60.1496V60.1496Z" stroke="#FFA001" stroke-width="2" stroke-miterlimit="10" stroke-linejoin="round"/>
<path fill-rule="evenodd" clip-rule="evenodd" d="M1 60.9996H9.26772V37.85H1V60.9996ZM5.37008 57.3962C6.64207 57.3962 7.67323 56.3651 7.67323 55.0931C7.67323 53.8211 6.64207 52.79 5.37008 52.79C4.09808 52.79 3.06693 53.8211 3.06693 55.0931C3.06693 56.3651 4.09808 57.3962 5.37008 57.3962Z" fill="#80485B"/>
<path d="M9.26772 60.9996V61.9996C9.82 61.9996 10.2677 61.5519 10.2677 60.9996H9.26772ZM1 60.9996H0C0 61.5519 0.447715 61.9996 1 61.9996L1 60.9996ZM9.26772 37.85H10.2677C10.2677 37.2978 9.82 36.85 9.26772 36.85V37.85ZM1 37.85V36.85C0.447715 36.85 0 37.2978 0 37.85H1ZM9.26772 59.9996H1V61.9996H9.26772V59.9996ZM8.26772 37.85V60.9996H10.2677V37.85H8.26772ZM1 38.85H9.26772V36.85H1V38.85ZM2 60.9996V37.85H0V60.9996H2ZM6.67323 55.0931C6.67323 55.8128 6.08979 56.3962 5.37008 56.3962V58.3962C7.19435 58.3962 8.67323 56.9174 8.67323 55.0931H6.67323ZM5.37008 53.79C6.08979 53.79 6.67323 54.3734 6.67323 55.0931H8.67323C8.67323 53.2688 7.19436 51.79 5.37008 51.79V53.79ZM4.06693 55.0931C4.06693 54.3734 4.65037 53.79 5.37008 53.79V51.79C3.5458 51.79 2.06693 53.2688 2.06693 55.0931H4.06693ZM5.37008 56.3962C4.65037 56.3962 4.06693 55.8128 4.06693 55.0931H2.06693C2.06693 56.9174 3.5458 58.3962 5.37008 58.3962V56.3962Z" fill="#80485B"/>
<path d="M52 3.18567H23.7244C22.0709 3.18567 20.5827 3.92976 19.5079 5.16992L10.0827 16.662C8.67716 18.3983 8.9252 20.9613 10.5787 22.3668C12.315 23.9376 14.9606 23.7723 16.4488 21.9534L25.2126 11.7841H37.7795L42.8228 15.5046L33.4803 18.3156C31.9921 18.8117 31 20.1345 31 21.7054C31 23.6896 32.5709 25.2605 34.5551 25.2605L52 21.1266V3.18567Z" fill="#FFFCFD" stroke="#FFA001" stroke-width="2" stroke-miterlimit="10" stroke-linejoin="round"/>
<path fill-rule="evenodd" clip-rule="evenodd" d="M59.1102 0.999878H51.6693V24.1495H59.1102V0.999878ZM55.5079 7.67391C56.7799 7.67391 57.811 6.64276 57.811 5.37076C57.811 4.09877 56.7799 3.06761 55.5079 3.06761C54.2359 3.06761 53.2047 4.09877 53.2047 5.37076C53.2047 6.64276 54.2359 7.67391 55.5079 7.67391Z" fill="#80485B"/>
<path d="M51.6693 0.999878V-0.00012207C51.117 -0.00012207 50.6693 0.447593 50.6693 0.999878L51.6693 0.999878ZM59.1102 0.999878H60.1102C60.1102 0.447593 59.6625 -0.00012207 59.1102 -0.00012207V0.999878ZM51.6693 24.1495H50.6693C50.6693 24.7018 51.117 25.1495 51.6693 25.1495V24.1495ZM59.1102 24.1495V25.1495C59.6625 25.1495 60.1102 24.7018 60.1102 24.1495H59.1102ZM51.6693 1.99988H59.1102V-0.00012207H51.6693V1.99988ZM52.6693 24.1495V0.999878H50.6693V24.1495H52.6693ZM59.1102 23.1495H51.6693V25.1495H59.1102V23.1495ZM58.1102 0.999878V24.1495H60.1102V0.999878H58.1102ZM56.811 5.37076C56.811 6.09047 56.2276 6.67391 55.5079 6.67391V8.67391C57.3322 8.67391 58.811 7.19504 58.811 5.37076H56.811ZM55.5079 4.06761C56.2276 4.06761 56.811 4.65105 56.811 5.37076H58.811C58.811 3.54648 57.3322 2.06761 55.5079 2.06761V4.06761ZM54.2047 5.37076C54.2047 4.65105 54.7882 4.06761 55.5079 4.06761V2.06761C53.6836 2.06761 52.2047 3.54648 52.2047 5.37076H54.2047ZM55.5079 6.67391C54.7882 6.67391 54.2047 6.09047 54.2047 5.37076H52.2047C52.2047 7.19504 53.6836 8.67391 55.5079 8.67391V6.67391Z" fill="#80485B"/>
</svg>
